<svg width="17" height="16" viewBox="0 0 17 16" fill="none" xmlns="http://www.w3.org/2000/svg">
    <rect width="16" height="16" transform="translate(0.5)" fill="white" fill-opacity="0.01"/>
    <g clip-path="url(#clip0_2177_43509)">
    <rect width="14" height="14" transform="translate(1.5 1)" fill="white" fill-opacity="0.01"/>
    <g clip-path="url(#clip1_2177_43509)">
    <path d="M10.9968 7.25177C11.0375 7.29241 11.0698 7.34069 11.0919 7.39384C11.1139 7.447 11.1253 7.50398 11.1253 7.56152C11.1253 7.61907 11.1139 7.67605 11.0919 7.7292C11.0698 7.78235 11.0375 7.83063 10.9968 7.87127L8.37176 10.4963C8.33112 10.537 8.28284 10.5693 8.22969 10.5914C8.17654 10.6135 8.11956 10.6248 8.06201 10.6248C8.00447 10.6248 7.94748 10.6135 7.89433 10.5914C7.84118 10.5693 7.7929 10.537 7.75226 10.4963L6.43976 9.18377C6.39908 9.1431 6.36682 9.09481 6.3448 9.04166C6.32279 8.98851 6.31146 8.93155 6.31146 8.87402C6.31146 8.8165 6.32279 8.75953 6.3448 8.70639C6.36682 8.65324 6.39908 8.60495 6.43976 8.56427C6.52191 8.48212 6.63333 8.43597 6.74951 8.43597C6.80704 8.43597 6.864 8.4473 6.91715 8.46932C6.97029 8.49133 7.01858 8.5236 7.05926 8.56427L8.06201 9.5679L10.3773 7.25177C10.4179 7.21103 10.4662 7.17871 10.5193 7.15665C10.5725 7.13459 10.6295 7.12324 10.687 7.12324C10.7446 7.12324 10.8015 7.13459 10.8547 7.15665C10.9078 7.17871 10.9561 7.21103 10.9968 7.25177Z" fill="#6C757D"/>
    <path d="M4.56201 0.999023C4.67804 0.999023 4.78932 1.04512 4.87137 1.12716C4.95342 1.20921 4.99951 1.32049 4.99951 1.43652V1.87402H11.9995V1.43652C11.9995 1.32049 12.0456 1.20921 12.1277 1.12716C12.2097 1.04512 12.321 0.999023 12.437 0.999023C12.553 0.999023 12.6643 1.04512 12.7464 1.12716C12.8284 1.20921 12.8745 1.32049 12.8745 1.43652V1.87402H13.7495C14.2136 1.87402 14.6588 2.0584 14.9869 2.38659C15.3151 2.71478 15.4995 3.15989 15.4995 3.62402V13.249C15.4995 13.7132 15.3151 14.1583 14.9869 14.4865C14.6588 14.8146 14.2136 14.999 13.7495 14.999H3.24951C2.78538 14.999 2.34026 14.8146 2.01207 14.4865C1.68389 14.1583 1.49951 13.7132 1.49951 13.249V3.62402C1.49951 3.15989 1.68389 2.71478 2.01207 2.38659C2.34026 2.0584 2.78538 1.87402 3.24951 1.87402H4.12451V1.43652C4.12451 1.32049 4.17061 1.20921 4.25265 1.12716C4.3347 1.04512 4.44598 0.999023 4.56201 0.999023ZM2.37451 4.49902V13.249C2.37451 13.4811 2.4667 13.7036 2.63079 13.8677C2.79489 14.0318 3.01745 14.124 3.24951 14.124H13.7495C13.9816 14.124 14.2041 14.0318 14.3682 13.8677C14.5323 13.7036 14.6245 13.4811 14.6245 13.249V4.49902H2.37451Z" fill="#6C757D"/>
    </g>
    </g>
    <defs>
    <clipPath id="clip0_2177_43509">
    <rect width="14" height="14" fill="white" transform="translate(1.5 1)"/>
    </clipPath>
    <clipPath id="clip1_2177_43509">
    <rect width="14" height="14" fill="white" transform="translate(1.5 1)"/>
    </clipPath>
    </defs>
</svg>
